<?xml version="1.0" encoding="UTF-8" standalone="no"?>
<!-- Created with Inkscape (http://www.inkscape.org/) -->

<svg
   xmlns:dc="http://purl.org/dc/elements/1.1/"
   xmlns:cc="http://creativecommons.org/ns#"
   xmlns:rdf="http://www.w3.org/1999/02/22-rdf-syntax-ns#"
   xmlns:svg="http://www.w3.org/2000/svg"
   xmlns="http://www.w3.org/2000/svg"
   xmlns:sodipodi="http://sodipodi.sourceforge.net/DTD/sodipodi-0.dtd"
   xmlns:inkscape="http://www.inkscape.org/namespaces/inkscape"
   width="210mm"
   height="297mm"
   viewBox="0 0 210 297"
   version="1.1"
   id="svg8"
   inkscape:version="0.92.4 (f8dce91, 2019-08-02)"
   sodipodi:docname="01.svg"
   inkscape:export-filename="/home/mojtaba/Dropbox/Projects/Design/Questhink/01.png"
   inkscape:export-xdpi="192"
   inkscape:export-ydpi="192">
  <defs
     id="defs2">
    <clipPath
       clipPathUnits="userSpaceOnUse"
       id="clipPath907">
      <rect
         inkscape:export-ydpi="213.7"
         inkscape:export-xdpi="213.7"
         ry="0"
         y="86.845238"
         x="28.726189"
         height="121.70833"
         width="121.70833"
         id="rect909"
         style="opacity:1;fill:#feffff;fill-opacity:1;stroke:none;stroke-width:10.15699959;stroke-linecap:round;stroke-linejoin:round;stroke-miterlimit:4;stroke-dasharray:none;stroke-dashoffset:0;stroke-opacity:1;paint-order:stroke markers fill" />
    </clipPath>
  </defs>
  <sodipodi:namedview
     id="base"
     pagecolor="#7bffff"
     bordercolor="#666666"
     borderopacity="1.0"
     inkscape:pageopacity="0"
     inkscape:pageshadow="2"
     inkscape:zoom="0.65996634"
     inkscape:cx="765.38857"
     inkscape:cy="608.54624"
     inkscape:document-units="mm"
     inkscape:current-layer="layer1"
     showgrid="false"
     showguides="false"
     inkscape:window-width="1299"
     inkscape:window-height="713"
     inkscape:window-x="67"
     inkscape:window-y="27"
     inkscape:window-maximized="1" />
  <metadata
     id="metadata5">
    <rdf:RDF>
      <cc:Work
         rdf:about="">
        <dc:format>image/svg+xml</dc:format>
        <dc:type
           rdf:resource="http://purl.org/dc/dcmitype/StillImage" />
        <dc:title />
      </cc:Work>
    </rdf:RDF>
  </metadata>
  <g
     inkscape:label="Layer 1"
     inkscape:groupmode="layer"
     id="layer1">
    <rect
       style="opacity:1;fill:#feffff;fill-opacity:1;stroke:none;stroke-width:10.15699959;stroke-linecap:round;stroke-linejoin:round;stroke-miterlimit:4;stroke-dasharray:none;stroke-dashoffset:0;stroke-opacity:1;paint-order:stroke markers fill"
       id="rect815"
       width="121.70833"
       height="121.70833"
       x="28.726189"
       y="86.845238"
       ry="0"
       inkscape:export-xdpi="213.7"
       inkscape:export-ydpi="213.7" />
    <rect
       style="opacity:1;fill:#feffff;fill-opacity:1;stroke:none;stroke-width:10.15699959;stroke-linecap:round;stroke-linejoin:round;stroke-miterlimit:4;stroke-dasharray:none;stroke-dashoffset:0;stroke-opacity:1;paint-order:stroke markers fill"
       id="rect868"
       width="121.70833"
       height="121.70833"
       x="28.726189"
       y="86.845238"
       ry="60.854164"
       inkscape:export-xdpi="213.7"
       inkscape:export-ydpi="213.7" />
    <path
       style="fill:#000000;stroke-width:0.46691534"
       d="m 82.99257,238.33202 c -1.313516,-0.75338 -3.286402,-2.37978 -4.384163,-3.6142 -7.181949,-8.07608 -6.76544,-18.97691 1.21935,-31.91331 1.343711,-2.17699 2.54912,-5.94022 6.519015,-20.35203 2.678755,-9.72464 4.870466,-17.74476 4.870466,-17.82246 0,-0.0777 -1.016655,1.07776 -2.259229,2.5677 -3.354802,4.02268 -5.912568,6.15105 -9.293135,7.73302 -2.555808,1.196 -3.568722,1.41214 -6.476485,1.38202 -18.231061,-1.7088 -19.810559,-21.68369 -15.598561,-35.15468 5.734103,-17.29529 19.31536,-29.19559 31.038673,-27.00543 5.029026,0.93953 9.01018,5.24148 10.597191,11.45111 l 0.58287,2.28058 0.860418,-5.11234 c 0.47326,-2.8118 1.08904,-5.3878 1.36843,-5.72444 0.87789,-1.05777 5.46893,-2.12341 8.1797,-1.89862 4.1727,0.34604 4.17561,0.36443 1.50019,9.467 -1.28315,4.36567 -3.58678,12.77014 -5.11915,18.67661 -6.806738,26.23617 -10.274608,40.04713 -10.099619,40.22213 0.350085,0.35009 18.870539,-18.88814 23.976649,-24.90587 6.31199,-7.43893 7.45424,-8.54599 8.8175,-8.54599 2.86039,0 1.97111,2.89435 -2.87418,9.3546 -6.66974,8.89281 -14.87365,18.36916 -24.2748,28.03979 l -8.917452,9.17306 -0.7457,4.14755 c -1.729884,9.62132 -1.92568,12.17023 -1.832608,23.85567 0.09176,11.52353 -0.13959,13.88067 -1.444299,14.71024 -1.192527,0.75828 -3.891613,0.31864 -6.211071,-1.01171 z M 80.244725,167.3951 c 1.027226,-0.47128 2.953964,-2.01218 4.28165,-3.42419 5.315723,-5.65331 9.073217,-13.56991 11.310545,-23.83003 l 0.890901,-4.08552 h -1.142302 c -2.081875,0 -3.31222,-1.83245 -3.639699,-5.42086 -0.569051,-6.23582 -1.888073,-9.0602 -4.658206,-9.97441 -5.113574,-1.68764 -11.141591,3.94856 -15.377517,14.37797 -3.738558,9.20488 -5.4062,22.59207 -3.446691,27.6688 1.883132,4.87885 6.961394,6.8997 11.781319,4.68824 z"
       id="path828"
       inkscape:connector-curvature="0"
       sodipodi:nodetypes="cccsscccccccccccsccsssccccccsccscccsc"
       inkscape:export-xdpi="213.7"
       inkscape:export-ydpi="213.7"
       clip-path="url(#clipPath907)" />
  </g>
</svg>
