<?xml version="1.0" encoding="UTF-8" standalone="no"?>
<!-- Created with Inkscape (http://www.inkscape.org/) -->

<svg
   xmlns:dc="http://purl.org/dc/elements/1.1/"
   xmlns:cc="http://creativecommons.org/ns#"
   xmlns:rdf="http://www.w3.org/1999/02/22-rdf-syntax-ns#"
   xmlns:svg="http://www.w3.org/2000/svg"
   xmlns="http://www.w3.org/2000/svg"
   xmlns:sodipodi="http://sodipodi.sourceforge.net/DTD/sodipodi-0.dtd"
   xmlns:inkscape="http://www.inkscape.org/namespaces/inkscape"
   width="82"
   height="25.616346"
   viewBox="0 0 21.695833 6.7776585"
   version="1.1"
   id="svg8"
   inkscape:version="0.92.4 (fd57863, 2020-04-02)"
   sodipodi:docname="logo.svg">
  <defs
     id="defs2" />
  <sodipodi:namedview
     id="base"
     pagecolor="#ffffff"
     bordercolor="#666666"
     borderopacity="1.0"
     inkscape:pageopacity="0.0"
     inkscape:pageshadow="2"
     inkscape:zoom="0.35"
     inkscape:cx="24.72789"
     inkscape:cy="56.515521"
     inkscape:document-units="px"
     inkscape:current-layer="layer1"
     showgrid="false"
     units="px"
     inkscape:window-width="1299"
     inkscape:window-height="713"
     inkscape:window-x="67"
     inkscape:window-y="27"
     inkscape:window-maximized="1" />
  <metadata
     id="metadata5">
    <rdf:RDF>
      <cc:Work
         rdf:about="">
        <dc:format>image/svg+xml</dc:format>
        <dc:type
           rdf:resource="http://purl.org/dc/dcmitype/StillImage" />
        <dc:title></dc:title>
      </cc:Work>
    </rdf:RDF>
  </metadata>
  <g
     inkscape:label="Layer 1"
     inkscape:groupmode="layer"
     id="layer1"
     transform="translate(-50.017063,-157.00873)">
    <g
       aria-label="questhink"
       style="font-style:normal;font-variant:normal;font-weight:normal;font-stretch:normal;font-size:5.89996195px;line-height:1.25;font-family:cunia;-inkscape-font-specification:cunia;letter-spacing:0px;word-spacing:0px;fill:#000000;fill-opacity:1;stroke:none;stroke-width:0.14749904"
       id="text817">
      <path
         d="m 51.451722,160.80184 q -0.06338,0.0864 -0.13828,0.17285 -0.0749,0.0864 -0.161327,0.15556 -0.08643,0.0692 -0.184374,0.10948 -0.09795,0.0461 -0.207421,0.0461 -0.270799,0 -0.420603,-0.10947 -0.149803,-0.10947 -0.224705,-0.25928 -0.06914,-0.1498 -0.08066,-0.30537 -0.01729,-0.16132 -0.01729,-0.25927 0,-0.26504 0.103711,-0.53584 0.10371,-0.27656 0.27656,-0.50126 0.172851,-0.22471 0.391795,-0.36299 0.224705,-0.14404 0.455173,-0.14404 0.144042,0 0.24199,0.0634 0.09795,0.0576 0.161327,0.14404 0.06338,0.0864 0.09219,0.18437 0.03457,0.0979 0.04609,0.17285 0.01152,-0.0691 0.02305,-0.14404 0.01152,-0.0634 0.02305,-0.13828 0.01152,-0.0749 0.02305,-0.14404 0.03457,-0.0288 0.0749,-0.0461 0.04609,-0.0173 0.09219,-0.0288 0.05186,-0.0115 0.10371,-0.0173 0.05186,0 0.09795,0.006 0.09219,0.0115 0.126757,0.0634 -0.161327,0.53008 -0.230467,0.79511 -0.04033,0.14981 -0.06338,0.25928 -0.02305,0.0807 -0.06914,0.24775 -0.04033,0.16709 -0.09795,0.38603 -0.05762,0.21895 -0.120995,0.47246 -0.06338,0.24775 -0.120996,0.48974 0.126757,-0.12675 0.270799,-0.27079 0.149804,-0.14405 0.299608,-0.29961 0.149803,-0.15557 0.293845,-0.31689 0.149804,-0.16709 0.276561,-0.32842 0.0749,-0.0922 0.126757,-0.11523 0.05762,-0.0231 0.08066,0.006 0.02305,0.023 0.01152,0.0864 -0.0058,0.0576 -0.05762,0.12676 -0.09219,0.12676 -0.201659,0.2708 -0.109472,0.13828 -0.230467,0.28232 -0.115233,0.13828 -0.236229,0.27656 -0.120995,0.13828 -0.230467,0.25352 -0.115234,0.11523 -0.253514,0.24199 -0.13828,0.13252 -0.270799,0.30537 -0.02305,0.10947 -0.04033,0.19589 -0.01152,0.0864 -0.02305,0.15557 -0.02881,0.20166 -0.04033,0.33994 -0.0058,0.14404 -0.0058,0.24775 0,0.10947 0.0058,0.1959 0.0058,0.0922 0.0058,0.19013 0.0058,0.20742 -0.01729,0.28809 -0.01728,0.0807 -0.132518,0.0807 -0.05762,0 -0.149804,-0.0519 -0.09219,-0.0519 -0.178612,-0.14405 -0.08643,-0.0922 -0.149804,-0.2247 -0.05762,-0.13252 -0.05762,-0.29961 0,-0.21894 0.08642,-0.43213 0.08643,-0.20742 0.230468,-0.40908 0.04033,-0.14404 0.08642,-0.32265 0.05186,-0.17861 0.10371,-0.36875 0.05186,-0.18437 0.10371,-0.37451 0.05186,-0.19013 0.09795,-0.35722 z m -0.939154,-0.29385 q 0,0.16709 0.04033,0.25928 0.04609,0.0922 0.10371,0.13828 0.06338,0.0403 0.126757,0.0461 0.06338,0.006 0.10371,0.006 0.120996,0 0.236229,-0.0979 0.115234,-0.10371 0.207421,-0.25352 0.09795,-0.1498 0.167088,-0.32265 0.0749,-0.17861 0.109472,-0.32842 0.01729,-0.0864 0.02881,-0.15556 0.01729,-0.0691 0.02881,-0.11524 -0.109472,0.0115 -0.149803,-0.0461 -0.04033,-0.0576 -0.04609,-0.20166 0,-0.0576 -0.01152,-0.12099 -0.01152,-0.0691 -0.04033,-0.121 -0.02881,-0.0576 -0.0749,-0.0922 -0.04609,-0.0346 -0.115234,-0.0346 -0.149803,0 -0.282322,0.13828 -0.126757,0.13828 -0.224706,0.35147 -0.09795,0.21318 -0.155565,0.46669 -0.05185,0.25352 -0.05185,0.48398 z"
         style="font-style:normal;font-variant:normal;font-weight:normal;font-stretch:normal;font-family:Satisfy;-inkscape-font-specification:Satisfy;stroke-width:0.14749904"
         id="path838" />
      <path
         d="m 53.491357,161.1994 q -0.218944,0 -0.357224,-0.0692 -0.13828,-0.0691 -0.218944,-0.16708 -0.0749,-0.10371 -0.109472,-0.21895 -0.02881,-0.12099 -0.02881,-0.21894 0,-0.17285 0.02881,-0.36299 0.02881,-0.19589 0.06914,-0.35722 0.04033,-0.16709 0.06914,-0.28232 0.03457,-0.11524 0.04609,-0.14405 0.05186,-0.16708 0.132519,-0.28808 0.08642,-0.12676 0.236229,-0.17285 0.05762,-0.0115 0.120995,-0.023 0.05186,-0.006 0.10371,-0.006 0.05762,0 0.103711,0.0173 -0.155566,0.39755 -0.247753,0.66259 -0.08642,0.26504 -0.132518,0.43213 -0.05186,0.19013 -0.06338,0.30536 -0.02881,0.25928 0.04609,0.3918 0.0749,0.13252 0.305369,0.13252 0.149803,0 0.288084,-0.10947 0.13828,-0.11524 0.253514,-0.29385 -0.01729,-0.0922 -0.01729,-0.19014 0,-0.18437 0.02881,-0.35722 0.03457,-0.17861 0.0749,-0.32842 0.04609,-0.15556 0.09219,-0.27656 0.05186,-0.12099 0.08642,-0.19013 0.06338,-0.13828 0.115234,-0.16709 0.05186,-0.0346 0.167088,-0.0403 0.04609,-0.006 0.0749,0 0.03457,0 0.05762,0.006 0.06914,0.0173 0.06914,0.0691 0,0.0922 -0.01152,0.27656 -0.01152,0.18437 -0.06914,0.38027 -0.04033,0.16133 -0.08066,0.27656 -0.03457,0.10947 -0.06914,0.19014 -0.03457,0.0749 -0.06914,0.12675 -0.03457,0.0461 -0.06338,0.0864 0.01152,0.17285 0.02881,0.27656 0.01729,0.10371 0.04033,0.16133 0.02881,0.0518 0.06338,0.0749 0.04033,0.0173 0.08642,0.0173 0.08066,0 0.190136,-0.0749 0.109472,-0.0807 0.224705,-0.19589 0.120996,-0.121 0.236229,-0.25928 0.120996,-0.14404 0.218944,-0.2708 0.09795,-0.12676 0.167089,-0.21894 0.06914,-0.0979 0.08642,-0.121 0.04033,-0.0519 0.0749,-0.0634 0.04033,-0.0115 0.06338,0.0115 0.02305,0.0173 0.02305,0.0634 0.0058,0.0403 -0.02305,0.0922 -0.115234,0.21895 -0.288085,0.4667 -0.167088,0.24199 -0.362985,0.44941 -0.190136,0.20742 -0.386033,0.3457 -0.195897,0.13828 -0.368748,0.13828 -0.155565,0 -0.247752,-0.10371 -0.08642,-0.10947 -0.149804,-0.31113 -0.132518,0.20742 -0.311131,0.32265 -0.178612,0.10948 -0.397556,0.10948 z"
         style="font-style:normal;font-variant:normal;font-weight:normal;font-stretch:normal;font-family:Satisfy;-inkscape-font-specification:Satisfy;stroke-width:0.14749904"
         id="path840" />
      <path
         d="m 58.152558,159.90878 q -0.172851,0.25351 -0.391795,0.4955 -0.218944,0.23623 -0.466696,0.42637 -0.241991,0.18437 -0.501266,0.2996 -0.253514,0.11524 -0.495505,0.11524 -0.126757,0 -0.276561,-0.0634 -0.144042,-0.0576 -0.265037,-0.18437 -0.120995,-0.12676 -0.195897,-0.32842 -0.06914,-0.20166 -0.04033,-0.48974 0.02305,-0.23623 0.144042,-0.49551 0.126757,-0.26503 0.305369,-0.48398 0.184374,-0.21894 0.40908,-0.36298 0.230467,-0.14405 0.460934,-0.14405 0.218944,0 0.316893,0.10948 0.09795,0.10947 0.08643,0.27079 -0.01729,0.17862 -0.10371,0.32842 -0.08066,0.1498 -0.195898,0.2708 -0.115233,0.12099 -0.247752,0.21894 -0.126757,0.0979 -0.241991,0.17862 -0.126757,0.0864 -0.24199,0.16708 -0.115234,0.0749 -0.201659,0.13828 0.0058,0.14405 0.05186,0.242 0.04609,0.0979 0.115234,0.16132 0.06914,0.0576 0.155565,0.0864 0.09219,0.023 0.184374,0.023 0.195897,0 0.409079,-0.12099 0.213183,-0.12676 0.414841,-0.29961 0.207421,-0.17861 0.380271,-0.36875 0.178613,-0.19013 0.293846,-0.32841 0.04033,-0.0461 0.08066,-0.0519 0.04609,-0.0115 0.06914,0.0115 0.02881,0.0173 0.02881,0.0691 0,0.0461 -0.04033,0.10947 z m -1.474991,-0.8873 q -0.06914,0 -0.167089,0.0691 -0.09219,0.0691 -0.184374,0.20166 -0.09219,0.12676 -0.17285,0.31689 -0.08066,0.18437 -0.120995,0.42637 0.06914,-0.0519 0.149803,-0.10371 0.08066,-0.0576 0.161327,-0.121 0.247753,-0.19014 0.345701,-0.33418 0.09795,-0.14404 0.109472,-0.24775 0.01152,-0.10947 -0.02305,-0.15557 -0.03457,-0.0519 -0.09795,-0.0519 z"
         style="font-style:normal;font-variant:normal;font-weight:normal;font-stretch:normal;font-family:Satisfy;-inkscape-font-specification:Satisfy;stroke-width:0.14749904"
         id="path842" />
      <path
         d="m 58.555875,160.91131 q 0.03457,0.0231 0.08643,0.0231 0.05762,0 0.109472,-0.0231 0.05762,-0.023 0.10371,-0.0634 0.05186,-0.0403 0.0749,-0.10371 0.02305,-0.0634 0,-0.17861 -0.02305,-0.121 -0.0749,-0.25351 -0.04609,-0.13828 -0.10371,-0.27656 -0.05762,-0.13828 -0.09795,-0.25352 -0.03457,-0.0864 -0.05762,-0.16133 -0.02305,-0.0634 -0.04609,-0.12099 -0.01729,-0.0634 -0.02881,-0.0864 -0.02881,0.0461 -0.10371,0.14981 -0.06914,0.10371 -0.155565,0.21894 -0.08066,0.10947 -0.155566,0.20742 -0.0749,0.0922 -0.10371,0.12676 -0.04609,0.0519 -0.09219,0.0634 -0.04033,0.006 -0.06914,-0.0173 -0.02881,-0.0288 -0.03457,-0.0749 0,-0.0519 0.04609,-0.12099 0.03457,-0.0461 0.103711,-0.14405 0.06914,-0.10371 0.13828,-0.20742 0.06914,-0.10947 0.126757,-0.19013 0.05762,-0.0864 0.06338,-0.10371 0.01152,-0.0461 -0.03457,-0.121 -0.04033,-0.0749 -0.01152,-0.17285 0.02305,-0.0807 0.10371,-0.18437 0.08066,-0.10947 0.190136,-0.1959 0.109472,-0.0864 0.224705,-0.12676 0.115234,-0.0461 0.207421,0 0.0749,0.0461 0.120995,0.10371 0.04609,0.0519 0.03457,0.10948 -0.01152,0.0288 -0.03457,0.0749 -0.02305,0.0461 -0.06914,0.11523 -0.04609,0.0634 -0.132519,0.16709 0.01729,0.13252 0.04609,0.24199 0.03457,0.10947 0.06338,0.19014 0.03457,0.0979 0.0749,0.17861 0.05185,0.10371 0.109472,0.21318 0.05762,0.10947 0.10371,0.21894 0.04609,0.10371 0.0749,0.1959 0.02881,0.0922 0.01729,0.15557 -0.01729,0.0979 -0.10371,0.23623 -0.08066,0.13828 -0.207421,0.27079 -0.120995,0.12676 -0.282322,0.21895 -0.155565,0.0922 -0.328416,0.0922 -0.120995,0 -0.236229,-0.0749 -0.109472,-0.0749 -0.190135,-0.17285 -0.0749,-0.10371 -0.115234,-0.20166 -0.03457,-0.0979 -0.0058,-0.1498 0.03457,-0.0691 0.06338,-0.10947 0.02881,-0.0403 0.08642,-0.0922 0.02305,-0.0173 0.05762,-0.0403 0.02881,-0.0173 0.08066,-0.0346 0.05186,-0.0173 0.120996,-0.0403 0.05762,0.17861 0.10371,0.28232 0.04609,0.0979 0.0749,0.15557 0.03457,0.0634 0.06338,0.0864 z"
         style="font-style:normal;font-variant:normal;font-weight:normal;font-stretch:normal;font-family:Satisfy;-inkscape-font-specification:Satisfy;stroke-width:0.14749904"
         id="path844" />
      <path
         d="m 61.943745,159.6495 q 0.02305,-0.0346 0.05762,-0.0403 0.04033,-0.0115 0.06338,0.006 0.02305,0.0173 0.02305,0.0576 0.0058,0.0403 -0.02881,0.10947 -0.115233,0.21895 -0.305369,0.47246 -0.184374,0.25351 -0.391794,0.47822 -0.207421,0.21894 -0.403318,0.36298 -0.195897,0.14405 -0.328416,0.14405 -0.190135,0 -0.316892,-0.0749 -0.126757,-0.0749 -0.201659,-0.18438 -0.06914,-0.10947 -0.09795,-0.23623 -0.02881,-0.13252 -0.01729,-0.24199 0.0058,-0.0922 0.04033,-0.32841 0.03457,-0.24199 0.09219,-0.55313 0.05762,-0.31689 0.126757,-0.67411 0.0749,-0.36299 0.155565,-0.69717 -0.09795,0.0115 -0.195897,0.023 -0.09795,0.0115 -0.178612,0.0115 -0.184374,0 -0.345701,-0.0403 -0.167089,-0.0461 -0.247752,-0.0864 -0.04609,-0.0231 -0.04033,-0.0634 0.0058,-0.0461 0.03457,-0.0864 0.02881,-0.0461 0.0749,-0.0749 0.04033,-0.0346 0.0749,-0.0346 0.109472,0.0115 0.236229,0.023 0.126757,0.006 0.276561,0 0.109472,-0.006 0.20742,-0.0173 0.10371,-0.0115 0.201659,-0.0288 0.0749,-0.27656 0.144042,-0.47821 0.0749,-0.20743 0.132519,-0.28809 0.01729,-0.0288 0.0749,-0.0461 0.06338,-0.0231 0.132518,-0.0288 0.06914,-0.0115 0.132519,0 0.06338,0.006 0.09219,0.0403 0.02881,0.0461 0.02305,0.23623 -0.0058,0.19014 -0.06338,0.48398 0.241991,0 0.426364,0.0288 0.190136,0.0231 0.322655,0.0576 0.132518,0.0288 0.213182,0.0634 0.08066,0.0288 0.120995,0.0403 0.04033,0.0115 0.04033,0.0576 0.0058,0.0461 -0.01729,0.0979 -0.01729,0.0461 -0.06338,0.0807 -0.04609,0.0346 -0.10371,0.023 -0.05762,-0.006 -0.132519,-0.023 -0.06914,-0.0173 -0.17285,-0.0288 -0.09795,-0.0115 -0.236229,-0.0231 -0.13828,-0.0115 -0.322654,-0.0115 -0.03457,0 -0.08066,0.006 -0.04033,0 -0.08642,0 -0.02305,0.0922 -0.04609,0.18437 -0.01729,0.0864 -0.05186,0.18438 -0.0749,0.23046 -0.172851,0.50126 -0.08643,0.23623 -0.20742,0.5416 -0.120996,0.30537 -0.270799,0.65107 -0.03457,0.24775 0.0058,0.38027 0.04609,0.12676 0.109472,0.18438 0.0749,0.0634 0.184374,0.0691 0.08642,0.0115 0.20742,-0.0576 0.126757,-0.0749 0.259276,-0.1959 0.132519,-0.12099 0.265038,-0.26504 0.13828,-0.14404 0.253514,-0.28232 0.115233,-0.13828 0.201658,-0.24775 0.08643,-0.11523 0.120996,-0.16133 z"
         style="font-style:normal;font-variant:normal;font-weight:normal;font-stretch:normal;font-family:Satisfy;-inkscape-font-specification:Satisfy;stroke-width:0.14749904"
         id="path846" />
      <path
         d="m 64.576832,159.83964 q 0.04033,-0.0461 0.08066,-0.0461 0.04609,-0.006 0.06914,0.023 0.02881,0.0231 0.02305,0.0749 0,0.0519 -0.04609,0.11524 -0.109472,0.1498 -0.253514,0.31113 -0.144042,0.15556 -0.311131,0.30537 -0.161327,0.1498 -0.328415,0.28232 -0.167089,0.13252 -0.322655,0.21894 -0.17285,0.0979 -0.293845,0.0979 -0.115234,0 -0.230468,-0.1498 -0.10371,-0.13252 -0.10371,-0.28232 0.0058,-0.15557 0.06914,-0.38604 0.04033,-0.14404 0.109472,-0.33994 0.0749,-0.20165 0.115234,-0.38603 0.04609,-0.18437 0.02881,-0.31113 -0.01729,-0.13252 -0.149803,-0.13252 -0.09219,0 -0.201659,0.0634 -0.103711,0.0634 -0.213182,0.16709 -0.103711,0.098 -0.201659,0.2247 -0.09795,0.12676 -0.172851,0.24776 -0.04609,0.2247 -0.09219,0.44365 -0.04033,0.18437 -0.08642,0.40331 -0.04033,0.21319 -0.08066,0.38028 -0.03457,0.0288 -0.0749,0.0403 -0.04033,0.0115 -0.0749,0.0115 -0.04033,0 -0.08066,-0.006 -0.04609,-0.0115 -0.08642,-0.0346 -0.03457,-0.0231 -0.06914,-0.0634 -0.03457,-0.0346 -0.05185,-0.0979 0.259275,-1.06591 0.409079,-1.71122 0.149804,-0.64531 0.230467,-0.98525 0.09219,-0.40331 0.126757,-0.55888 0.01729,-0.10947 0.02881,-0.21318 0.01152,-0.0922 0.01152,-0.19014 0,-0.0979 -0.01729,-0.17861 0.04609,-0.0288 0.09795,-0.0461 0.05762,-0.0173 0.109472,-0.0288 0.06338,-0.0173 0.126757,-0.0288 0.06338,-0.0115 0.115233,-0.0115 0.04609,0 0.08643,0.0115 0.04033,0.006 0.05185,0.0346 0.03457,0.0288 0.02881,0.11523 0,0.0864 -0.01152,0.17862 -0.02305,0.10947 -0.05185,0.23623 -0.120996,0.46669 -0.270799,0.91034 -0.149804,0.43789 -0.276561,0.93916 0.0749,-0.11524 0.178612,-0.23623 0.10371,-0.121 0.224706,-0.21895 0.126757,-0.10371 0.265037,-0.16709 0.13828,-0.0691 0.293846,-0.0691 0.08066,0 0.149803,0.0288 0.0749,0.0231 0.126757,0.0864 0.05762,0.0576 0.08643,0.16132 0.02881,0.0979 0.02305,0.24776 0,0.0922 -0.02305,0.19013 -0.01728,0.0979 -0.05186,0.21895 -0.03457,0.11523 -0.09219,0.25927 -0.05186,0.14404 -0.126757,0.33418 -0.05186,0.13252 -0.08066,0.22471 -0.02881,0.0922 0.01152,0.16132 0.05186,0.0922 0.201659,0.0461 0.155566,-0.0519 0.460935,-0.29961 0.06914,-0.0576 0.155565,-0.14404 0.08643,-0.0864 0.167089,-0.17285 0.08066,-0.0922 0.149804,-0.17285 0.06914,-0.0807 0.115233,-0.12676 z"
         style="font-style:normal;font-variant:normal;font-weight:normal;font-stretch:normal;font-family:Satisfy;-inkscape-font-specification:Satisfy;stroke-width:0.14749904"
         id="path848" />
      <path
         d="m 65.625459,157.71358 q -0.01729,0.0634 -0.06914,0.12675 -0.04609,0.0576 -0.109472,0.0979 -0.05762,0.0346 -0.120995,0.0461 -0.06338,0.0115 -0.103711,-0.023 -0.120995,-0.0922 -0.126757,-0.1959 -0.0058,-0.10947 0.05186,-0.20166 0.05762,-0.0979 0.144042,-0.16132 0.08643,-0.0691 0.149803,-0.0807 0.06338,-0.0115 0.103711,0.0288 0.04609,0.0346 0.06914,0.0979 0.02305,0.0576 0.02305,0.13252 0.0058,0.0749 -0.01152,0.13252 z m -0.795112,1.22724 q 0.02881,-0.0346 0.109472,-0.0576 0.08066,-0.023 0.167089,-0.0346 0.08642,-0.0173 0.155565,-0.0173 0.0749,-0.006 0.08643,0 0.0058,0.006 -0.02881,0.121 -0.03457,0.11523 -0.08642,0.2708 -0.05186,0.15556 -0.109472,0.32265 -0.05762,0.16133 -0.08643,0.26504 -0.02881,0.10371 -0.06914,0.23623 -0.04033,0.12676 -0.0749,0.25351 -0.02881,0.121 -0.04033,0.23047 -0.01152,0.10947 0.01729,0.16709 0.02881,0.0691 0.06338,0.0979 0.03457,0.023 0.0749,0.023 0.115234,0 0.288084,-0.12675 0.178612,-0.12676 0.357225,-0.29961 0.184373,-0.17861 0.339939,-0.35722 0.155565,-0.18438 0.230467,-0.29385 0.04609,-0.0576 0.09219,-0.0749 0.05186,-0.0173 0.08066,0.006 0.03457,0.0231 0.03457,0.0749 0.0058,0.0519 -0.03457,0.121 -0.09219,0.16132 -0.270799,0.38603 -0.178612,0.21894 -0.380271,0.42636 -0.201658,0.20166 -0.397556,0.3457 -0.190135,0.14405 -0.31113,0.14981 -0.09795,0.006 -0.195898,-0.0346 -0.09219,-0.0346 -0.17285,-0.0979 -0.0749,-0.0691 -0.126757,-0.15557 -0.05186,-0.0922 -0.05762,-0.19013 -0.01729,-0.14404 0,-0.3918 0.01729,-0.25351 0.06338,-0.51279 0.04609,-0.26503 0.115233,-0.50126 0.0749,-0.23623 0.167089,-0.35146 z"
         style="font-style:normal;font-variant:normal;font-weight:normal;font-stretch:normal;font-family:Satisfy;-inkscape-font-specification:Satisfy;stroke-width:0.14749904"
         id="path850" />
      <path
         d="m 67.693903,161.25125 q -0.132519,0 -0.230468,-0.0519 -0.09219,-0.0461 -0.149803,-0.12676 -0.05762,-0.0807 -0.0749,-0.18438 -0.01729,-0.10947 0.01152,-0.23046 0.01729,-0.0807 0.05762,-0.21319 0.04033,-0.13828 0.08066,-0.29384 0.04609,-0.16133 0.08066,-0.31689 0.04033,-0.16133 0.05186,-0.28809 0.01152,-0.13252 -0.01152,-0.21318 -0.02305,-0.0864 -0.09795,-0.0864 -0.09219,0 -0.190135,0.0634 -0.09795,0.0576 -0.201659,0.16133 -0.09795,0.10371 -0.201659,0.24199 -0.09795,0.13252 -0.195897,0.27656 -0.05186,0.1959 -0.08643,0.3457 -0.03457,0.14404 -0.06338,0.26504 -0.02305,0.11523 -0.04609,0.20742 -0.02305,0.0864 -0.04033,0.16709 -0.01728,0.0576 -0.10371,0.11523 -0.08643,0.0519 -0.184374,0.0864 -0.09795,0.0346 -0.167089,0.0346 -0.0749,0 -0.06338,-0.0519 0.0058,-0.0346 0.04033,-0.15556 0.02881,-0.121 0.0749,-0.28232 0.04033,-0.16709 0.08643,-0.35147 0.04609,-0.18437 0.08643,-0.35146 0.02881,-0.13252 0.06338,-0.29385 0.02881,-0.13828 0.06914,-0.32265 0.04609,-0.18437 0.103711,-0.40332 0.04033,-0.0346 0.08066,-0.0519 0.04609,-0.0231 0.09219,-0.0346 0.04609,-0.0173 0.09795,-0.0231 0.04609,0 0.09219,0.006 0.04033,0.006 0.08066,0.023 0.04609,0.0115 0.08066,0.0403 -0.01729,0.0403 -0.04033,0.11523 -0.02305,0.0691 -0.04609,0.14981 -0.02305,0.0922 -0.05762,0.19013 0.0749,-0.10371 0.167088,-0.20742 0.09795,-0.10947 0.207421,-0.19589 0.115233,-0.0864 0.24199,-0.13828 0.126757,-0.0576 0.259276,-0.0576 0.109472,0 0.195897,0.0634 0.08643,0.0634 0.132519,0.17861 0.05186,0.10947 0.05762,0.26504 0.01152,0.15556 -0.04033,0.33994 l -0.06338,0.25351 q -0.02881,0.121 -0.0749,0.28808 -0.04033,0.16133 -0.103711,0.35723 -0.03457,0.12676 -0.02881,0.21894 0.01152,0.0922 0.115234,0.0922 0.10371,0 0.259275,-0.12676 0.161327,-0.12675 0.322654,-0.30537 0.161328,-0.17861 0.30537,-0.36298 0.144042,-0.19014 0.218944,-0.30537 0.05186,-0.0749 0.09795,-0.0979 0.04609,-0.0231 0.06914,-0.006 0.02881,0.0173 0.02881,0.0807 0,0.0576 -0.04609,0.14981 -0.04033,0.0807 -0.126757,0.21318 -0.08066,0.13252 -0.195897,0.28232 -0.115234,0.1498 -0.247752,0.30537 -0.132519,0.1498 -0.276561,0.27656 -0.144042,0.12099 -0.288084,0.1959 -0.13828,0.0807 -0.265037,0.0807 z"
         style="font-style:normal;font-variant:normal;font-weight:normal;font-stretch:normal;font-family:Satisfy;-inkscape-font-specification:Satisfy;stroke-width:0.14749904"
         id="path852" />
      <path
         d="m 71.669463,159.96063 q -0.132519,0.21895 -0.305369,0.45518 -0.167089,0.23046 -0.357224,0.42636 -0.190136,0.19014 -0.391795,0.31689 -0.201659,0.12676 -0.403317,0.12676 -0.201659,0 -0.293846,-0.13828 -0.08643,-0.13252 -0.08066,-0.29961 0,-0.0749 0.01152,-0.13252 0.01729,-0.0576 0.03457,-0.10371 0.01729,-0.0461 0.03457,-0.0922 0.02305,-0.0519 0.04033,-0.11524 0.02305,-0.0749 0,-0.13252 -0.01728,-0.0634 -0.04609,-0.10947 -0.05186,0.0576 -0.120995,0.10371 -0.06338,0.0403 -0.161327,0.0403 -0.06914,0 -0.126757,-0.0634 -0.05762,-0.0691 -0.05762,-0.16709 0,-0.0807 0.03457,-0.13252 0.04033,-0.0519 0.08643,-0.0807 0.05185,-0.0288 0.10371,-0.0403 0.05186,-0.0115 0.08643,-0.0115 0.01729,0 0.06914,0.006 0.05762,0.006 0.120995,0.0173 0.207421,-0.16709 0.293846,-0.29961 0.09219,-0.13828 0.01729,-0.24775 -0.04609,-0.0749 -0.115234,-0.0749 -0.06914,-0.006 -0.144042,0.0346 -0.0749,0.0346 -0.149803,0.0922 -0.06914,0.0576 -0.126757,0.10947 -0.115234,0.11524 -0.259276,0.27656 -0.13828,0.15557 -0.230467,0.25928 -0.04033,0.17285 -0.08066,0.36299 -0.03457,0.16709 -0.08066,0.38027 -0.04033,0.20742 -0.08643,0.43212 -0.03457,0.0173 -0.0749,0.023 -0.03457,0.0115 -0.06338,0.0173 -0.03457,0.006 -0.06914,0.006 -0.04609,0 -0.08643,-0.006 -0.04033,0 -0.06338,-0.0288 -0.02881,-0.0231 -0.02881,-0.0807 -0.0058,-0.0576 0.02881,-0.16132 0.04609,-0.14981 0.115234,-0.39756 0.06914,-0.25351 0.144042,-0.55312 0.0749,-0.29961 0.149803,-0.62226 0.08066,-0.32842 0.149804,-0.62226 0.06914,-0.29961 0.115234,-0.53584 0.05186,-0.24199 0.0749,-0.38027 0.01729,-0.14981 0.03457,-0.28809 0.01152,-0.11523 0.01152,-0.2247 0.0058,-0.11524 -0.01152,-0.17285 0.02881,-0.0288 0.08066,-0.0519 0.05186,-0.023 0.115234,-0.0346 0.06338,-0.0173 0.149804,-0.0288 0.09795,-0.0115 0.161327,-0.006 0.06914,0.006 0.09795,0.0576 0.03457,0.0576 0.01152,0.1959 -0.01729,0.13252 -0.08066,0.37451 -0.08066,0.31113 -0.167089,0.5704 -0.08066,0.25352 -0.161327,0.47822 -0.0749,0.22471 -0.149803,0.43789 -0.06914,0.20742 -0.126757,0.42636 0.115233,-0.16708 0.288084,-0.35146 0.17285,-0.19013 0.391794,-0.31113 0.230467,-0.12099 0.380271,-0.12099 0.184374,0 0.265037,0.12675 0.08066,0.121 0.0749,0.28809 -0.0058,0.13252 -0.06914,0.24775 -0.05762,0.10947 -0.144042,0.20742 -0.08643,0.0922 -0.184374,0.16133 -0.09795,0.0691 -0.167089,0.11523 0.08066,0.0461 0.138281,0.12676 0.06338,0.0749 0.05762,0.19013 -0.0058,0.15557 -0.06338,0.27656 -0.05186,0.11524 -0.05186,0.21319 0.0058,0.0749 0.02881,0.10947 0.02881,0.0346 0.115234,0.0346 0.155565,0 0.322654,-0.13252 0.172851,-0.13252 0.322654,-0.30537 0.149804,-0.17285 0.276561,-0.33994 0.126757,-0.17285 0.195897,-0.25351 0.09795,-0.10371 0.161327,-0.0519 0.06914,0.0461 -0.01152,0.17861 z"
         style="font-style:normal;font-variant:normal;font-weight:normal;font-stretch:normal;font-family:Satisfy;-inkscape-font-specification:Satisfy;stroke-width:0.14749904"
         id="path854" />
    </g>
  </g>
</svg>
